<svg width="20" height="20" viewBox="0 0 20 20" xmlns="http://www.w3.org/2000/svg">
    <path
            d="M10.75 1.5C10.75 1.08579 10.4142 0.75 10 0.75C9.58579 0.75 9.25 1.08579 9.25 1.5V2.35C7.25 2.65 5.75 4.05 5.75 6C5.75 8.25 7.6 9 9.8 9.6C11.85 10.15 12.75 10.65 12.75 11.85C12.75 13.05 11.7 13.75 10 13.75C8.35 13.75 7.35 13.05 7.2 11.9C7.15 11.55 6.85 11.25 6.5 11.25C6.05 11.25 5.7 11.65 5.75 12.1C5.95 13.95 7.4 15.2 9.25 15.55V16.5C9.25 16.9142 9.58579 17.25 10 17.25C10.4142 17.25 10.75 16.9142 10.75 16.5V15.6C12.95 15.3 14.5 13.9 14.5 11.85C14.5 9.45 12.55 8.7 10.35 8.1C8.4 7.55 7.5 7.05 7.5 5.95C7.5 4.85 8.45 4.25 10 4.25C11.45 4.25 12.25 4.9 12.45 5.85C12.55 6.25 12.85 6.5 13.25 6.5C13.7 6.5 14.05 6.1 13.95 5.65C13.6 3.95 12.3 2.85 10.75 2.45V1.5Z"
            fill="#FACC15"
    />
</svg>
