<svg width="20" height="20" viewBox="0 0 20 20" xmlns="http://www.w3.org/2000/svg">
    <path
            d="M14.75 4.75C14.2 3.55 12.85 2.75 11.25 2.75C9.1 2.75 7.35 4.2 6.75 6.25H5.25C4.85 6.25 4.5 6.6 4.5 7C4.5 7.4 4.85 7.75 5.25 7.75H6.5C6.5 7.9 6.5 8.05 6.5 8.25H5.25C4.85 8.25 4.5 8.6 4.5 9C4.5 9.4 4.85 9.75 5.25 9.75H6.75C7.35 11.8 9.1 13.25 11.25 13.25C12.85 13.25 14.2 12.45 14.75 11.25C14.9 10.9 14.65 10.5 14.25 10.5C13.95 10.5 13.7 10.65 13.55 10.9C13.1 11.55 12.25 12 11.25 12C9.9 12 8.75 11.05 8.25 9.75H11.75C12.15 9.75 12.5 9.4 12.5 9C12.5 8.6 12.15 8.25 11.75 8.25H8C8 8.05 8 7.9 8 7.75H11.75C12.15 7.75 12.5 7.4 12.5 7C12.5 6.6 12.15 6.25 11.75 6.25H8.25C8.75 4.95 9.9 4 11.25 4C12.25 4 13.1 4.45 13.55 5.1C13.7 5.35 13.95 5.5 14.25 5.5C14.65 5.5 14.9 5.1 14.75 4.75Z"
            fill="#FACC15"
    />
</svg>
